# Blender 4.0.2
# www.blender.org
mtllib roof.mtl
o Sphere.001
v 1.013250 0.007276 0.000000
v -0.000000 0.007275 1.013250
v 0.000000 1.169999 0.000000
v -1.013250 0.007275 -0.000000
v 0.000000 0.007275 -1.013250
vn 0.6020 0.5246 -0.6020
vn 0.6020 0.5246 0.6020
vn -0.6020 0.5246 0.6020
vn -0.6020 0.5246 -0.6020
vn -0.0000 -1.0000 -0.0000
vt 0.750000 0.666667
vt 0.625000 1.000000
vt 0.500000 0.666667
vt 0.375000 1.000000
vt 0.250000 0.666667
vt 0.125000 1.000000
vt 0.000000 0.666667
vt 1.000000 0.666667
vt 0.875000 1.000000
s 0
f 5/1/1 3/2/1 1/3/1
f 1/3/2 3/4/2 2/5/2
f 2/5/3 3/6/3 4/7/3
f 4/8/4 3/9/4 5/1/4
f 1/3/5 2/5/5 4/8/5 5/1/5
